<?xml version="1.0" encoding="UTF-8"?>
<svg id="Capa_2" data-name="Capa 2" xmlns="http://www.w3.org/2000/svg" viewBox="0 0 355.37 192.48">
  <defs>
    <style>
      .cls-1 {
        fill: #e2294c;
      }
    </style>
  </defs>
  <g id="Layer_1" data-name="Layer 1">
    <g>
      <path class="cls-1" d="M126.41,192.48c-.52,0-1.04-.07-1.54-.21-1.64-.45-3-1.6-3.72-3.13l-31.07-66.08H21.35v63.6c0,3.21-2.6,5.82-5.82,5.82H5.82c-3.21,0-5.82-2.6-5.82-5.82V105.94c0-3.21,2.6-5.82,5.82-5.82H99.71c2.26,0,4.31,1.31,5.27,3.36l35.07,75.07c1.21,2.59,.36,5.68-2.01,7.28l-8.37,5.66c-.97,.66-2.11,1-3.26,1Zm-30.71-80.73c.12,.04,.25,.09,.37,.14l-.07-.14h-.3Zm-5.71-30.79H5.82c-3.21,0-5.82-2.6-5.82-5.82V5.82C0,2.6,2.6,0,5.82,0H89.99c22.4,0,40.62,18.22,40.62,40.62s-18.6,40.35-40.62,40.35ZM21.35,59.62H89.99c10.45,0,19.27-8.7,19.27-19s-8.65-19.27-19.27-19.27H21.35V59.62Z"/>
      <g>
        <path class="cls-1" d="M352.03,55.68c-2.04-.96-4.45-.66-6.18,.77l-84.8,69.8L176.26,56.45c-1.74-1.43-4.15-1.73-6.18-.77-2.04,.96-3.34,3.01-3.34,5.26v125.72c0,3.21,2.6,5.82,5.82,5.82h9.71c3.21,0,5.82-2.6,5.82-5.82V94.03l69.27,56.93c2.15,1.77,5.24,1.77,7.39,0l69.27-56.93v92.64c0,3.21,2.6,5.82,5.82,5.82h9.71c3.21,0,5.82-2.6,5.82-5.82V60.94c0-2.25-1.3-4.3-3.34-5.26Z"/>
        <path class="cls-1" d="M257.35,85.02c1.08,.89,2.39,1.34,3.71,1.34s2.63-.45,3.71-1.34L344.36,19.19c1.2-.99,1.95-2.43,2.09-3.98,.14-1.55-.36-3.09-1.37-4.28l-6.21-7.28c-2.06-2.41-5.66-2.74-8.12-.73l-69.69,57.14L191.36,2.92c-2.45-2.01-6.06-1.68-8.12,.73l-6.2,7.28c-1.01,1.19-1.5,2.73-1.37,4.28,.13,1.55,.89,2.98,2.09,3.98l79.59,65.83Z"/>
      </g>
    </g>
  </g>
</svg>