<?xml version="1.0" encoding="UTF-8"?>
<svg id="Capa_2" data-name="Capa 2" xmlns="http://www.w3.org/2000/svg" viewBox="0 0 787 335.89">
  <defs>
    <style>
      .cls-1 {
        fill: #2e2e2e;
      }
    </style>
  </defs>
  <g id="Layer_1" data-name="Layer 1">
    <g>
      <g>
        <path class="cls-1" d="M0,335.05v-73.54H18.42c7.44,0,13.34,1.84,17.71,5.53s6.55,8.67,6.55,14.95c0,4.28-1.07,7.98-3.21,11.11-2.14,3.12-5.21,5.46-9.21,7,2.35,1.54,4.65,3.65,6.9,6.32,2.25,2.67,5.4,7.32,9.48,13.95,2.56,4.18,4.61,7.32,6.16,9.42l3.9,5.26h-12.53l-3.21-4.85c-.11-.17-.32-.47-.63-.89l-2.05-2.9-3.26-5.37-3.52-5.74c-2.17-3.02-4.16-5.42-5.97-7.21-1.81-1.79-3.44-3.07-4.9-3.86-1.46-.79-3.91-1.18-7.35-1.18h-2.74v32.01H0Zm13.69-64.59h-3.16v23.22h4c5.33,0,8.99-.46,10.98-1.37,1.98-.91,3.53-2.29,4.63-4.13s1.66-3.94,1.66-6.29-.61-4.41-1.84-6.29c-1.23-1.88-2.96-3.2-5.19-3.97-2.23-.77-5.92-1.16-11.08-1.16Z"/>
        <path class="cls-1" d="M64.8,261.51h41.69v9.37h-31.16v22.43h30.11v9.42h-30.11v22.85h32.16v9.37h-42.69v-73.44Z"/>
        <path class="cls-1" d="M118.81,334.94v-73.44h24.79c10,0,17.92,1.5,23.74,4.5,5.83,3,10.46,7.41,13.9,13.24,3.44,5.83,5.16,12.18,5.16,19.06,0,4.91-.95,9.62-2.84,14.11-1.9,4.49-4.6,8.44-8.11,11.84-3.58,3.51-7.74,6.16-12.48,7.95-2.77,1.09-5.32,1.82-7.63,2.18s-6.74,.55-13.27,.55h-23.27Zm23.69-64.07h-13.16v54.7h13.48c5.26,0,9.35-.36,12.27-1.08,2.91-.72,5.34-1.63,7.29-2.74,1.95-1.11,3.73-2.46,5.34-4.08,5.19-5.26,7.79-11.91,7.79-19.95s-2.67-14.34-8-19.32c-1.97-1.86-4.22-3.39-6.76-4.58-2.54-1.19-4.96-1.98-7.24-2.37-2.28-.39-5.95-.58-11-.58Z"/>
        <path class="cls-1" d="M258.05,261.51h9.84v73.54h-10.58v-57.22l-22.61,28.43h-1.95l-22.87-28.43v57.22h-10.53v-73.54h9.97l24.44,30.2,24.29-30.2Z"/>
        <path class="cls-1" d="M307.22,261.08h7.4l32.97,73.96h-10.78l-9.8-21.79h-31.38l-9.19,21.79h-10.82l31.59-73.96Zm15.47,42.8l-11.87-26.64-11,26.64h22.87Z"/>
        <path class="cls-1" d="M355.76,261.51h10.53v73.54h-10.53v-73.54Z"/>
        <path class="cls-1" d="M430.77,304.23l-8-4.86c-5.02-3.06-8.59-6.08-10.71-9.04-2.12-2.96-3.18-6.38-3.18-10.24,0-5.79,2.01-10.49,6.03-14.11,4.02-3.61,9.24-5.42,15.66-5.42s11.77,1.72,16.9,5.17v11.95c-5.3-5.1-11-7.65-17.11-7.65-3.44,0-6.26,.8-8.48,2.39-2.21,1.59-3.32,3.63-3.32,6.11,0,2.2,.81,4.27,2.44,6.19,1.63,1.92,4.25,3.94,7.86,6.06l8.04,4.76c8.97,5.36,13.46,12.18,13.46,20.46,0,5.9-1.97,10.69-5.92,14.37s-9.08,5.53-15.4,5.53c-7.26,0-13.88-2.23-19.85-6.7v-13.37c5.69,7.21,12.27,10.81,19.74,10.81,3.3,0,6.04-.92,8.24-2.75,2.19-1.84,3.29-4.14,3.29-6.9,0-4.48-3.23-8.72-9.69-12.74Z"/>
        <path class="cls-1" d="M455.67,261.4h61.43v9.37h-25.64v64.28h-10.58v-64.28h-25.22v-9.37Z"/>
        <path class="cls-1" d="M578.22,261.51h10.58v41.75c0,5.65-.41,9.91-1.24,12.79-.83,2.88-1.84,5.27-3.05,7.19-1.21,1.91-2.69,3.62-4.45,5.13-5.83,5.02-13.44,7.53-22.85,7.53s-17.27-2.49-23.06-7.48c-1.76-1.54-3.24-3.27-4.45-5.19-1.21-1.91-2.21-4.25-3-7.03-.79-2.77-1.18-7.12-1.18-13.06v-41.64h10.58v41.75c0,6.91,.79,11.72,2.37,14.42,1.58,2.7,3.98,4.87,7.21,6.5,3.23,1.63,7.04,2.45,11.42,2.45,6.25,0,11.33-1.63,15.27-4.9,2.07-1.75,3.56-3.82,4.47-6.21,.91-2.39,1.37-6.47,1.37-12.27v-41.75Z"/>
        <path class="cls-1" d="M603.49,334.94v-73.44h24.79c10,0,17.91,1.5,23.74,4.5,5.83,3,10.46,7.41,13.9,13.24,3.44,5.83,5.16,12.18,5.16,19.06,0,4.91-.95,9.62-2.84,14.11-1.9,4.49-4.6,8.44-8.11,11.84-3.58,3.51-7.74,6.16-12.48,7.95-2.77,1.09-5.32,1.82-7.63,2.18s-6.74,.55-13.27,.55h-23.27Zm23.69-64.07h-13.16v54.7h13.48c5.26,0,9.35-.36,12.27-1.08,2.91-.72,5.34-1.63,7.29-2.74,1.95-1.11,3.73-2.46,5.34-4.08,5.19-5.26,7.79-11.91,7.79-19.95s-2.67-14.34-8-19.32c-1.97-1.86-4.22-3.39-6.76-4.58-2.54-1.19-4.96-1.98-7.24-2.37-2.28-.39-5.95-.58-11-.58Z"/>
        <path class="cls-1" d="M684.35,261.51h10.53v73.54h-10.53v-73.54Z"/>
        <path class="cls-1" d="M747.28,260.45c11.36,0,20.82,3.6,28.38,10.79,7.56,7.2,11.34,16.21,11.34,27.06s-3.81,19.82-11.44,26.93c-7.63,7.11-17.25,10.66-28.85,10.66s-20.32-3.55-27.7-10.66c-7.38-7.11-11.07-16.01-11.07-26.72s3.72-20.07,11.15-27.27c7.44-7.19,16.83-10.79,28.2-10.79Zm.42,10c-8.42,0-15.33,2.63-20.75,7.9-5.42,5.26-8.13,11.99-8.13,20.16s2.72,14.53,8.15,19.79c5.43,5.26,12.24,7.9,20.41,7.9s15.05-2.68,20.54-8.05c5.49-5.37,8.23-12.06,8.23-20.06s-2.74-14.34-8.23-19.66-12.23-7.98-20.22-7.98Z"/>
      </g>
      <path class="cls-1" d="M333.17,192.48c-.52,0-1.04-.07-1.54-.21-1.64-.45-3-1.6-3.72-3.13l-31.07-66.08h-68.73v63.6c0,3.21-2.6,5.82-5.82,5.82h-9.71c-3.21,0-5.82-2.6-5.82-5.82V105.94c0-3.21,2.6-5.82,5.82-5.82h93.89c2.26,0,4.31,1.31,5.27,3.36l35.07,75.07c1.21,2.59,.36,5.68-2.01,7.28l-8.37,5.66c-.97,.66-2.11,1-3.26,1Zm-30.71-80.73c.12,.04,.25,.09,.37,.14l-.07-.14h-.3Zm-5.71-30.79h-84.17c-3.21,0-5.82-2.6-5.82-5.82V5.82c0-3.21,2.6-5.82,5.82-5.82h84.17c22.4,0,40.62,18.22,40.62,40.62s-18.6,40.35-40.62,40.35Zm-68.65-21.35h68.65c10.45,0,19.27-8.7,19.27-19s-8.65-19.27-19.27-19.27h-68.65V59.62Z"/>
      <g>
        <path class="cls-1" d="M558.79,55.68c-2.04-.96-4.45-.66-6.18,.77l-84.8,69.8-84.8-69.8c-1.74-1.43-4.15-1.73-6.18-.77-2.04,.96-3.34,3.01-3.34,5.26v125.72c0,3.21,2.6,5.82,5.82,5.82h9.71c3.21,0,5.82-2.6,5.82-5.82V94.03l69.27,56.93c2.15,1.77,5.24,1.77,7.39,0l69.27-56.93v92.64c0,3.21,2.6,5.82,5.82,5.82h9.71c3.21,0,5.82-2.6,5.82-5.82V60.94c0-2.25-1.3-4.3-3.34-5.26Z"/>
        <path class="cls-1" d="M464.11,85.02c1.08,.89,2.39,1.34,3.71,1.34s2.63-.45,3.71-1.34l79.59-65.83c1.2-.99,1.95-2.43,2.09-3.98,.14-1.55-.36-3.09-1.37-4.28l-6.21-7.28c-2.06-2.41-5.66-2.74-8.12-.73l-69.69,57.14L398.12,2.92c-2.45-2.01-6.06-1.68-8.12,.73l-6.2,7.28c-1.01,1.19-1.5,2.73-1.37,4.28,.13,1.55,.89,2.98,2.09,3.98l79.59,65.83Z"/>
      </g>
    </g>
  </g>
</svg>